<svg xmlns="http://www.w3.org/2000/svg" viewBox="0 0 1001.58 696.55"><defs><style>.a,.i,.j,.l,.n,.o,.q,.v,.y,.z{fill:none;}.a{stroke:#aadaf1;}.a,.i,.j,.l,.n,.o,.p,.q,.v,.y,.z{stroke-linecap:round;stroke-linejoin:round;stroke-width:2px;}.b,.p{fill:#f77f89;}.aa,.b,.c,.d,.e,.f,.g,.h,.k,.m,.p,.r,.s,.t,.u,.w,.x{fill-rule:evenodd;}.c{fill:#9b9b9b;}.d{fill:#bf9111;}.f{fill:#f7d167;}.g{fill:#3b4161;}.h{fill:#6367fd;}.i{stroke:#ff3274;}.j{stroke:#737999;}.k{fill:#b5545c;}.l,.p{stroke:#b5545c;}.m{fill:#ff3274;}.n{stroke:#9b9b9b;}.o{stroke:#4e4242;}.q{stroke:#4c4fd9;}.aa,.r{fill:#fff;isolation:isolate;}.r{opacity:0.26;}.s{fill:#8dc5e0;}.t{fill:#aadaf1;}.u{fill:#6a3416;}.v{stroke:#fff;}.w{fill:#3c1b09;}.x{fill:#c4c4c4;}.y{stroke:#8d8d8d;}.z{stroke:#8dc5e0;}.aa{opacity:0.25;}</style></defs><path class="a" d="M852.59,375.75h56.84a2,2,0,0,1,2,2v28a2,2,0,0,1-2,2H852.59a2,2,0,0,1-2-2v-28A2,2,0,0,1,852.59,375.75Z" transform="translate(-128.26 -95.86)"/><path class="a" d="M883,343.68h56.84a2,2,0,0,1,2,2v28a2,2,0,0,1-2,2H883a2,2,0,0,1-2-2v-28A2,2,0,0,1,883,343.68Z" transform="translate(-128.26 -95.86)"/><path class="a" d="M913.49,375.75h56.84a2,2,0,0,1,2,2v28a2,2,0,0,1-2,2H913.49a2,2,0,0,1-2-2v-28A2,2,0,0,1,913.49,375.75Z" transform="translate(-128.26 -95.86)"/><path class="a" d="M823.1,407.81h56.84a2,2,0,0,1,2,2v28a2,2,0,0,1-2,2H823.1a2,2,0,0,1-2-2v-28A2,2,0,0,1,823.1,407.81Z" transform="translate(-128.26 -95.86)"/><path class="b" d="M932.89,731.48h29.59v29.06H932.89Z" transform="translate(-128.26 -95.86)"/><path class="b" d="M1044.1,730.63h29.6v29.06h-29.6Z" transform="translate(-128.26 -95.86)"/><path class="c" d="M880.42,168.45l19.64-4.12a5.21,5.21,0,0,1,6.19,4l8.09,37.5a5.16,5.16,0,0,1-4,6.12L890.68,216a5.23,5.23,0,0,1-6.2-4l-8.08-37.5A5.14,5.14,0,0,1,880.42,168.45Z" transform="translate(-128.26 -95.86)"/><path class="b" d="M886.78,228.82c-2.42-3.83-20.65-39.41-15-42.43s8.8.12,10.18,3.39c3-3.19,9.19-6.95,11.75-4.21,3,3.18.52,8.28-1.73,10.27,2.57-.9,4.94-1.43,7,1.45,2.62,3.58-.76,13.83-2.56,15.37l9.51,9S889.19,232.66,886.78,228.82Z" transform="translate(-128.26 -95.86)"/><path class="d" d="M1048.93,448.21c0-15.55,15.54-28.16,34.72-28.16s34.71,12.61,34.71,28.16-15.54,28.17-34.71,28.17S1048.93,463.77,1048.93,448.21Z" transform="translate(-128.26 -95.86)"/><path class="e" d="M1019.1,126.83c26.73,0,40,24.31,41.28,32.76s-.37,26.25,2,33.39c6.58,19.39,30.54,29.88,30.54,49.51,0,45.42-50,32.27-65.21,31.69s-55.25-1.86-55.25-29.11c0-10.84,7.37-10.84,7.5-24.94.11-11.92-6.55-15.28-6.55-43.85C973.45,164.64,989.3,126.72,1019.1,126.83Z" transform="translate(-128.26 -95.86)"/><path class="f" d="M981.58,363.14c-.72-7.75-5.4-86,18.15-118a51.52,51.52,0,0,1-1.74-7.92c-8.63,6.21-40.9,39-45,44.45-3.72-4.78-43.87-61.1-45.93-61.77S885.4,228.39,885,230.49s47.85,95.16,60,99.08c5.1,1.64,12.29-3.39,14.54-4.12.31,5-44.71,136-1.73,137C983.37,430.58,982.29,370.9,981.58,363.14Z" transform="translate(-128.26 -95.86)"/><path class="g" d="M970.9,386.91,911,735.11l52.86-.22,39.27-166.55L1022.8,737.7l50.7-.65,3.47-349.7Z" transform="translate(-128.26 -95.86)"/><path class="h" d="M1049.84,395.22c-5.49,1.17-74.48-.23-80.78-3.73s-5-14.89,10.53-18.72c-5.49-1.38-17.17-8.08-1.43-10.42,2.82-28.16-9.39-131.2,39.12-133,34.29-5.06,40,25.05,40,25.05S1055.33,394.06,1049.84,395.22Z" transform="translate(-128.26 -95.86)"/><path class="b" d="M1017.27,139.84c-18.43,0-33.37,17.36-33.37,38.78s14.94,38.75,33.37,38.75a30.38,30.38,0,0,0,20.82-8.66c-.7-9.72-.79-19.58.71-24.75,2.32-6.4,1.48-3.72-.9-4l2.09-1.78c0-4.45.74-1.4,5.19-1.4l5.28-.22C1049.54,156.13,1035.11,139.84,1017.27,139.84Z" transform="translate(-128.26 -95.86)"/><path class="e" d="M979.17,171.81c7.14-1.88,12.73-5.32,18.9-16.3,7.33,6.76,13.57,6.89,24.48,4.74-.65,5.33-1.17,11.37,5.84,12.08s27.73,9.74,27.73,9.74l-1-23.63L1036.83,138l-21.36-3.89-18.83,8.83-11.76,15.26S972,173.7,979.17,171.81Z" transform="translate(-128.26 -95.86)"/><path class="b" d="M1026.5,174.94A14.54,14.54,0,1,1,1041,189.49,14.54,14.54,0,0,1,1026.5,174.94Z" transform="translate(-128.26 -95.86)"/><path class="b" d="M1012.21,212.07c1.41,6.87.26,15.78-1.41,22.12,4.93,2.82,24.68,3.79,30.67-.53-2.29-8.37-5.78-39-2.67-49.68C1031,183.29,1010.8,205.19,1012.21,212.07Z" transform="translate(-128.26 -95.86)"/><path class="b" d="M1050.69,422.83a117.78,117.78,0,0,1-7,10.26s-6.56-2.08-8.36.33-13.82,17.61-7.92,22.77,12.52-7.74,14.38-9.42a200.59,200.59,0,0,1,17.29,17.83s0-9.09,1-12.3,7.16-11.74,9.22-14S1054.07,417.18,1050.69,422.83Z" transform="translate(-128.26 -95.86)"/><path class="f" d="M1043.59,234.24c-3.14,7.9-6.88,15.63-16.57,21.28-.55,8.85,7.71,130.16,14.57,142.72a60.56,60.56,0,0,0,10.22,13.41c-2.11,5.66-4,10.79-3.22,12.44,1,2.13,18.37,17,20.72,16.34,1.54-.42,5.91-4.94,9.59-9,17,9.8,32.69,16.78,33,25.94,0,6.53-2.2,8.59-4.89,11.73,3.88-1.91,13.19-11.73,13.39-23.8.25-15.21-14.42-41.84-17-48.59,4.79-5.44,21.55-28.48,25.5-48.75C1118.76,308.57,1078.71,235.33,1043.59,234.24Z" transform="translate(-128.26 -95.86)"/><path class="i" d="M1056.13,306.42c3.44,5.46,27.33,41.51,27.33,41.51s-22.36,45.95-30.14,61.92" transform="translate(-128.26 -95.86)"/><path class="i" d="M1118.12,371.74a23.53,23.53,0,0,1,2.9-43.5" transform="translate(-128.26 -95.86)"/><path class="i" d="M1091.75,339.92l-8.3,8" transform="translate(-128.26 -95.86)"/><path class="i" d="M1093.7,352.65l-10.25-5.32" transform="translate(-128.26 -95.86)"/><path class="i" d="M1053.62,415.25c2.32,2.65,17,13.08,21,14.78" transform="translate(-128.26 -95.86)"/><path class="i" d="M931.55,314.24a15.91,15.91,0,0,1,27.38,11v.37" transform="translate(-128.26 -95.86)"/><path class="i" d="M952.94,281.65l-8.2,12.22" transform="translate(-128.26 -95.86)"/><path class="i" d="M960.26,291.25l-7.07-9.81" transform="translate(-128.26 -95.86)"/><path class="i" d="M913.28,227.51l-22.94,14.61" transform="translate(-128.26 -95.86)"/><path class="j" d="M1003.13,568.49c-1.43-9.76-6.92-93.31-3.06-122.38" transform="translate(-128.26 -95.86)"/><path class="j" d="M1059.6,590.83l15.41-6.15-16.58-10.33" transform="translate(-128.26 -95.86)"/><path class="j" d="M981.58,593.71l16.17-2.39L987.23,580" transform="translate(-128.26 -95.86)"/><path class="j" d="M967.14,408.78c5,.68,53,3.33,84,1.83" transform="translate(-128.26 -95.86)"/><path class="j" d="M914.46,715.25l54.43-1.53" transform="translate(-128.26 -95.86)"/><path class="j" d="M1020.64,719l53.06-1.51" transform="translate(-128.26 -95.86)"/><path class="j" d="M1041.63,447l22.17,22.38" transform="translate(-128.26 -95.86)"/><path class="j" d="M1028.2,433.4l4.15,4.18" transform="translate(-128.26 -95.86)"/><path class="j" d="M1038.51,737.5,1023,411" transform="translate(-128.26 -95.86)"/><path class="j" d="M999.59,513.8,946.09,735" transform="translate(-128.26 -95.86)"/><path class="k" d="M1010.8,178.51c0-2,.83-3.57,1.85-3.57s1.84,1.6,1.84,3.57-.82,3.56-1.84,3.56S1010.8,180.48,1010.8,178.51Z" transform="translate(-128.26 -95.86)"/><path class="k" d="M989.66,178.51c0-2,.83-3.57,1.85-3.57s1.85,1.6,1.85,3.57-.83,3.56-1.85,3.56S989.66,180.48,989.66,178.51Z" transform="translate(-128.26 -95.86)"/><path class="l" d="M1000.2,179.17c.31,2.78-.3,9-2.4,11.72" transform="translate(-128.26 -95.86)"/><path class="l" d="M1013.81,196.42a4.5,4.5,0,0,1,.14,1.11,4.41,4.41,0,0,1-6,4.14" transform="translate(-128.26 -95.86)"/><path class="l" d="M1012.68,217a29.1,29.1,0,0,0,4.59.37,28.59,28.59,0,0,0,11.53-2.45" transform="translate(-128.26 -95.86)"/><path class="l" d="M1032.05,173.19a9.41,9.41,0,1,1,9.3,10.85,9.28,9.28,0,0,1-2.65-.38" transform="translate(-128.26 -95.86)"/><path class="i" d="M1101.53,398.75l-20.85,30" transform="translate(-128.26 -95.86)"/><path class="m" d="M1091.16,133h11.54c.54,0,1,.63,1,1.42v7.19c0,.79-.45,1.42-1,1.42h-11.54c-.54,0-1-.63-1-1.42v-7.19C1090.17,133.67,1090.62,133,1091.16,133Z" transform="translate(-128.26 -95.86)"/><path class="m" d="M1108.68,138.51v4.43a.12.12,0,0,1-.19.11l-3.84-2.22-3.83-2.21c-.11-.06-.11-.16,0-.22l3.83-2.22,3.84-2.21a.12.12,0,0,1,.19.11Z" transform="translate(-128.26 -95.86)"/><path class="i" d="M1082.43,138.06a17,17,0,1,1,17,17A17,17,0,0,1,1082.43,138.06Z" transform="translate(-128.26 -95.86)"/><path class="n" d="M860.51,96.86H1104.1a24.74,24.74,0,0,1,24.74,24.74V245.68a24.74,24.74,0,0,1-24.74,24.73H860.51a24.74,24.74,0,0,1-24.74-24.73V121.6A24.74,24.74,0,0,1,860.51,96.86Z" transform="translate(-128.26 -95.86)"/><path class="n" d="M1127.25,112.74H837.62" transform="translate(-128.26 -95.86)"/><path class="i" d="M853.56,105.09a3.52,3.52,0,1,1,3.52,3.52A3.51,3.51,0,0,1,853.56,105.09Z" transform="translate(-128.26 -95.86)"/><path class="i" d="M867.43,105.09a3.52,3.52,0,1,1,3.52,3.52A3.52,3.52,0,0,1,867.43,105.09Z" transform="translate(-128.26 -95.86)"/><path class="i" d="M881.31,105.09a3.52,3.52,0,1,1,3.52,3.52A3.51,3.51,0,0,1,881.31,105.09Z" transform="translate(-128.26 -95.86)"/><path class="c" d="M1044.1,748.57l29.6-.25-.29,42.24L981.92,790c.35-8.69,17.18-24.13,37.69-27.19S1044.1,751.33,1044.1,748.57Z" transform="translate(-128.26 -95.86)"/><path class="o" d="M998.47,770.62a50.85,50.85,0,0,1,9.61,11" transform="translate(-128.26 -95.86)"/><path class="o" d="M1012.38,765.12a51.08,51.08,0,0,1,9.6,11" transform="translate(-128.26 -95.86)"/><path class="o" d="M1019.87,764.25c-25.86-27.92,23.55-35.07.09,0" transform="translate(-128.26 -95.86)"/><path class="o" d="M1020.06,764.2c27.62-32.63,43.37,21.43,0,.1" transform="translate(-128.26 -95.86)"/><path class="o" d="M1073.65,755.65l-34.15,0" transform="translate(-128.26 -95.86)"/><path class="o" d="M1073.41,790.44,982.3,790" transform="translate(-128.26 -95.86)"/><path class="c" d="M932.89,749.42l29.59-.25-.29,42.24-91.48-.58c.34-8.69,17.18-24.13,37.69-27.19S932.89,752.18,932.89,749.42Z" transform="translate(-128.26 -95.86)"/><path class="o" d="M887.26,771.47a51.12,51.12,0,0,1,9.61,11" transform="translate(-128.26 -95.86)"/><path class="o" d="M901.17,766a50.84,50.84,0,0,1,9.6,11" transform="translate(-128.26 -95.86)"/><path class="o" d="M908.66,765.09c-25.86-27.91,23.55-35.06.09,0" transform="translate(-128.26 -95.86)"/><path class="o" d="M908.85,765.05c27.62-32.63,43.37,21.43,0,.1" transform="translate(-128.26 -95.86)"/><path class="o" d="M962.43,756.5l-34.14,0" transform="translate(-128.26 -95.86)"/><path class="o" d="M962.2,791.29l-91.11-.46" transform="translate(-128.26 -95.86)"/><path class="p" d="M876.53,207.93c-1.33-3.18-.75-15.23,6.56-19.23" transform="translate(-128.26 -95.86)"/><path class="p" d="M886.37,211.78c-.82-4,1.32-12.41,5.67-15.37" transform="translate(-128.26 -95.86)"/><path class="i" d="M1027.15,255.45c6.44-4.85,13.75-14.15,16.27-20.8" transform="translate(-128.26 -95.86)"/><path class="q" d="M984.39,373.69c18.89,4.09,41.39,2.67,52.39,1.43" transform="translate(-128.26 -95.86)"/><path class="r" d="M860.64,96.86h243.59A24.74,24.74,0,0,1,1129,121.6V245.68a24.74,24.74,0,0,1-24.74,24.73H860.64a24.74,24.74,0,0,1-24.74-24.73V121.6A24.74,24.74,0,0,1,860.64,96.86Z" transform="translate(-128.26 -95.86)"/><path class="s" d="M413.7,444.19c0-6.8,10.7-12.3,23.89-12.3s23.89,5.5,23.89,12.3-10.7,12.29-23.89,12.29S413.7,451,413.7,444.19Z" transform="translate(-128.26 -95.86)"/><path class="m" d="M376.37,730l7.25,23.34,30.08-6.87-2.95-29.68Z" transform="translate(-128.26 -95.86)"/><path class="t" d="M296.53,446.94H754a4.42,4.42,0,0,1,4.42,4.42v8a4.42,4.42,0,0,1-4.42,4.42H296.53a4.42,4.42,0,0,1-4.42-4.42h0v-8a4.42,4.42,0,0,1,4.42-4.42Z" transform="translate(-128.26 -95.86)"/><path class="a" d="M358.81,464.18,266.26,748" transform="translate(-128.26 -95.86)"/><path class="a" d="M433.92,464.18,341.41,748" transform="translate(-128.26 -95.86)"/><path class="a" d="M433.92,464.18,526.42,748" transform="translate(-128.26 -95.86)"/><path class="a" d="M358.81,464.18,451.31,748" transform="translate(-128.26 -95.86)"/><path class="m" d="M276,701.54l-9.74,22,27,11.55,12-22.24Z" transform="translate(-128.26 -95.86)"/><path class="u" d="M265.68,721.51l28.5,12.34s35.52,33.28,51.91,41.39c0,7.39-1,10.82-6.68,12.93-2.54.94-48.45-17.44-48.45-17.44l-7.7-8.26-29.7-13.66Z" transform="translate(-128.26 -95.86)"/><path class="v" d="M282.89,715.71a3.63,3.63,0,1,1,3.63,3.63,3.62,3.62,0,0,1-3.63-3.63Z" transform="translate(-128.26 -95.86)"/><path class="v" d="M269.16,720.44a3.64,3.64,0,1,1,3.64,3.64h0A3.64,3.64,0,0,1,269.16,720.44Z" transform="translate(-128.26 -95.86)"/><path class="v" d="M288,726.83a3.63,3.63,0,1,1,3.63,3.63,3.62,3.62,0,0,1-3.63-3.63Z" transform="translate(-128.26 -95.86)"/><path class="w" d="M251.32,743.56l29.07,12.93a3.13,3.13,0,0,1,1.62,4.09l-2.54,5.71a3.09,3.09,0,0,1-4.11,1.52h0l-29.09-12.93a3.1,3.1,0,0,1-1.63-4.07h0l2.53-5.71a3.12,3.12,0,0,1,4.13-1.54Z" transform="translate(-128.26 -95.86)"/><path class="x" d="M202.15,491c66.21-18.65,161.19-8.32,181.68,20.13,7.32,10.16,4.84,26.06,3,32S307.51,715.4,307.51,715.4l-34.74-13.21,34.14-135S193.92,493.3,202.15,491Z" transform="translate(-128.26 -95.86)"/><path class="y" d="M285.07,706.86l40-128.86" transform="translate(-128.26 -95.86)"/><path class="y" d="M276.26,688.33l37.28,14" transform="translate(-128.26 -95.86)"/><path class="u" d="M383,751.19l29.86-8.52s48.57,3.23,66.39-.89c4.65,5.75,6.12,9,3,14.24-1.37,2.33-48.53,17.22-48.53,17.22l-11.19-1.51L391,780Z" transform="translate(-128.26 -95.86)"/><path class="w" d="M385.89,777.36l30.68-8.43a3.1,3.1,0,0,1,3.84,2.12h0l1.66,6a3.11,3.11,0,0,1-2.21,3.79h0l-30.68,8.43a3.09,3.09,0,0,1-3.84-2.12h0l-1.66-6a3.1,3.1,0,0,1,2.21-3.79Z" transform="translate(-128.26 -95.86)"/><path class="v" d="M396.36,740.74a3.64,3.64,0,1,1,3.65,3.63h0a3.63,3.63,0,0,1-3.63-3.63Z" transform="translate(-128.26 -95.86)"/><path class="v" d="M402.87,729a3.64,3.64,0,1,1,3.65,3.63h0A3.64,3.64,0,0,1,402.87,729Z" transform="translate(-128.26 -95.86)"/><path class="v" d="M383,738.15a3.63,3.63,0,1,1,3.63,3.63h0A3.63,3.63,0,0,1,383,738.15Z" transform="translate(-128.26 -95.86)"/><path class="t" d="M147.89,572.63h151.8a19.63,19.63,0,0,1,19.63,19.63h0a19.63,19.63,0,0,1-19.63,19.63H147.89a19.63,19.63,0,0,1-19.63-19.63h0a19.63,19.63,0,0,1,19.63-19.63Z" transform="translate(-128.26 -95.86)"/><path class="t" d="M217.43,598.48h12.72a3.8,3.8,0,0,1,3.8,3.8v140.6a3.8,3.8,0,0,1-3.8,3.8H217.43a3.8,3.8,0,0,1-3.8-3.8V602.28A3.8,3.8,0,0,1,217.43,598.48Z" transform="translate(-128.26 -95.86)"/><path class="t" d="M212.31,701.54h23a6.26,6.26,0,0,1,6.26,6.26h0v33.94a6.26,6.26,0,0,1-6.26,6.26H212.26a6.26,6.26,0,0,1-6.26-6.26h0V707.8a6.26,6.26,0,0,1,6.26-6.26Z" transform="translate(-128.26 -95.86)"/><path class="a" d="M147.58,772.17v-6.63A17.54,17.54,0,0,1,165.12,748h58.67" transform="translate(-128.26 -95.86)"/><path class="a" d="M299.83,772.17v-6.63A17.55,17.55,0,0,0,282.27,748H223.61" transform="translate(-128.26 -95.86)"/><path class="a" d="M195,772.17v-8c0-8.93,4.65-16.17,10.38-16.17h36.74c5.73,0,10.38,7.24,10.38,16.17v8" transform="translate(-128.26 -95.86)"/><path class="a" d="M138,781.79a9.61,9.61,0,1,1,9.61,9.61h0A9.62,9.62,0,0,1,138,781.79Z" transform="translate(-128.26 -95.86)"/><path class="a" d="M185.43,781.79A9.61,9.61,0,1,1,195,791.4h0A9.62,9.62,0,0,1,185.43,781.79Z" transform="translate(-128.26 -95.86)"/><path class="a" d="M252.54,772.17a9.62,9.62,0,1,1-9.61,9.63h0a9.62,9.62,0,0,1,9.61-9.62" transform="translate(-128.26 -95.86)"/><path class="a" d="M290.26,781.79a9.61,9.61,0,1,1,9.61,9.61h0A9.62,9.62,0,0,1,290.26,781.79Z" transform="translate(-128.26 -95.86)"/><path class="x" d="M153.58,451.87C93,578.39,215.26,581.8,258.16,581.17s54.19-3.86,65.8-6.67c3.71,11.24,48.18,156.8,48.18,156.8l39.05-11.8S381.34,534.58,374.6,522.09c-18.51-34.34-128-36.2-141.85-35.37S161.26,435.83,153.58,451.87Z" transform="translate(-128.26 -95.86)"/><path class="y" d="M157.36,469.16c-41.49,103.55,136.45,97.31,175.37,85.45,5.82,16.65,54,171.41,54,171.41" transform="translate(-128.26 -95.86)"/><path class="y" d="M382.37,554.8a56.69,56.69,0,0,1-45.25-53.95" transform="translate(-128.26 -95.86)"/><path class="y" d="M305.33,578.3A171.78,171.78,0,0,0,324,574.5c1.54,4.66,10.09,32.43,19.56,63.33" transform="translate(-128.26 -95.86)"/><path class="y" d="M382.08,552.78c-3.26-16.27-6-27.87-7.48-30.69-17.4-32.26-115.16-35.86-138.35-35.48" transform="translate(-128.26 -95.86)"/><path class="y" d="M409.32,708.06l-40.54,12.25" transform="translate(-128.26 -95.86)"/><path class="u" d="M226.93,255.68a20.72,20.72,0,1,1,20.72,20.72h0a20.71,20.71,0,0,1-20.71-20.71Z" transform="translate(-128.26 -95.86)"/><path class="b" d="M422.74,426.25c3.41-2.8,12.65-9.63,15.61-9.59s11.92,8.46,12.12,10.67-2.65,5.7-4.35,5.95-7.17-5-8.37-4.53-3.84,3.27-4.61,4.51S419.34,429,422.74,426.25Z" transform="translate(-128.26 -95.86)"/><path class="b" d="M300.54,371.35,321,392.23s15.48-33.23,26.26-50.81c-2.18-3.14-6-15.65-5.51-18s11.75-24.53,14.47-23.24,5.26,5.62,3.87,10c1.61-5.77,4.33-13.75,6.73-14.54s7.45.25,7.23,4.3c1.15-2.65,3.18-4.51,5.5-4.61,2-.09,6.08,1.62,6.36,4.14.34,3.15-4.16,10.67-4.71,11.74,2.1-2.86,2.08-3,3.34-3,2.53.09,6.81,3.85,4.72,9.28s-12.42,30.77-20.42,31.85c.37,4.92-23.47,73.57-23.47,73.57l-36.12-1.44-26.31-34.8Z" transform="translate(-128.26 -95.86)"/><path class="g" d="M229.38,295.92c-66.43.08-88.63,156-81.69,166.69,5.09,7.84,65.35,30.89,86,23.81,7.29-2.5,26.26-41.45,37-80.75,11.45-9.4,33.12-27.2,36.65-30.63-1-7.53-18.41-37.87-36.44-51.31C264.67,309.5,253.11,295.92,229.38,295.92Z" transform="translate(-128.26 -95.86)"/><path class="b" d="M246.56,401.86s31.71,40,40.05,43.25,98.42,2.21,105,1.44,5.38,4.25,11.33,4.57c6.16.34,9.71-5.11,10.55-7.86,3.76,4.18,10.39,10.61,14.74,8.37,3.08-1.6,3.12-3,1-5.21,3,1.73,8.42,4.27,10.61,2.56,3.52-2.74,3.85-5.3,2.66-7.43-3.67-6.59-15.49-15.92-18.3-17-3.24-1.28-13.11,2.24-17.86,2.53-21.53,1.33-75.82-12.06-93.63-12.87-2.62-5-29.77-37.83-31.87-41.11C273.39,379.47,246.56,401.86,246.56,401.86Z" transform="translate(-128.26 -95.86)"/><path class="b" d="M237.71,263.85a31.46,31.46,0,1,1,31.47,31.45h0A31.46,31.46,0,0,1,237.71,263.85Z" transform="translate(-128.26 -95.86)"/><path class="b" d="M241.93,257c.13,4.89-10.11,35.81-14.15,41.73,2,4.73,21.57,16.59,30.56,14.06,1-6,4.35-18.06,6.42-20.74S241.8,252.07,241.93,257Z" transform="translate(-128.26 -95.86)"/><path class="u" d="M277.88,197.54a20.6,20.6,0,0,0-15.69,7.32,23.49,23.49,0,0,0-30.81,28.93,13.71,13.71,0,0,0-4.44,10.1,14,14,0,0,0,11.5,13.72c.16-.77.16-1.31.41-2.19.68-2.34,10.86-6.62,12-5.85a8,8,0,0,0,3,1.32h.28a23.69,23.69,0,0,0,20.69-12.25,21.28,21.28,0,0,0,3.09.31,20.72,20.72,0,1,0,20.72-20.72,20.72,20.72,0,0,0-20.75-20.69Z" transform="translate(-128.26 -95.86)"/><path class="b" d="M229.37,244.79A12.18,12.18,0,1,1,241.55,257a12.17,12.17,0,0,1-12.18-12.21Z" transform="translate(-128.26 -95.86)"/><path class="j" d="M166.84,456.48c-1.31-19.34,17.17-91.19,31-112.57" transform="translate(-128.26 -95.86)"/><path class="j" d="M207.79,360.92c3.22,6.65,19.15,36.1,32.65,46.49,5.15-4.88,42.27-36.51,42.27-36.51-4.74-8.81-27.53-36.43-34.92-43.2" transform="translate(-128.26 -95.86)"/><path class="j" d="M233.45,400.69l44.62-36.87" transform="translate(-128.26 -95.86)"/><path class="j" d="M265.81,314.57a9.78,9.78,0,0,1-1.38,2.76c-5.3,7.4-20.24,6.59-33.37-1.8" transform="translate(-128.26 -95.86)"/><path class="j" d="M271,323.8c2.53,6.58,6,21.93,4.53,36.62" transform="translate(-128.26 -95.86)"/><path class="j" d="M287.46,381.63l16.8-14.91" transform="translate(-128.26 -95.86)"/><path class="j" d="M214.26,443c5.55-.87,35.85-.25,30.25,1.65S228.43,447.9,233.1,449a115.87,115.87,0,0,0,13.61,2.34" transform="translate(-128.26 -95.86)"/><path class="l" d="M285.84,264.68c-.31,2.77.3,9,2.39,11.72" transform="translate(-128.26 -95.86)"/><path class="k" d="M269,261c1-2.37,3-3.8,4.39-3.19s1.67,3,.64,5.39-3,3.8-4.39,3.19S267.94,263.38,269,261Z" transform="translate(-128.26 -95.86)"/><path class="k" d="M292.73,266.41c1-2.37,3-3.8,4.39-3.2s1.67,3,.64,5.39-3,3.8-4.39,3.19S291.69,268.77,292.73,266.41Z" transform="translate(-128.26 -95.86)"/><path class="l" d="M268.86,283.81a10.23,10.23,0,0,1-7.1-8.82" transform="translate(-128.26 -95.86)"/><path class="l" d="M263.37,294.77a31.46,31.46,0,0,1-20.55-13.72" transform="translate(-128.26 -95.86)"/><path class="l" d="M245.8,256.2a12.14,12.14,0,0,1-7.53.32" transform="translate(-128.26 -95.86)"/><path class="l" d="M239.2,252.13a7.13,7.13,0,1,1,9-6.88" transform="translate(-128.26 -95.86)"/><path class="l" d="M346.26,419.29,313,414.21l-20.65-26.52" transform="translate(-128.26 -95.86)"/><path class="l" d="M359.52,338.55c1.24-2.7,4.68-8.62,3.49-11.2s-9.43-6.07-8.42-8.54,5.59-9.15,5.59-9.15" transform="translate(-128.26 -95.86)"/><path class="l" d="M374,299.92l-6.31,12.9" transform="translate(-128.26 -95.86)"/><path class="l" d="M381.5,311.2l-5.13,7.28" transform="translate(-128.26 -95.86)"/><path class="l" d="M424.85,424.86l9.16,7" transform="translate(-128.26 -95.86)"/><path class="l" d="M429.1,446l-6.84-6.32" transform="translate(-128.26 -95.86)"/><path class="m" d="M388,201.17h11.53c.54,0,1,.64,1,1.43v7.19c0,.79-.45,1.42-1,1.42H388c-.55,0-1-.63-1-1.42V202.6C387,201.81,387.46,201.17,388,201.17Z" transform="translate(-128.26 -95.86)"/><path class="m" d="M405.52,206.65v4.42c0,.13-.09.18-.19.12L401.49,209l-3.83-2.21c-.11-.06-.11-.16,0-.22l3.83-2.22,3.84-2.21a.11.11,0,0,1,.16,0,.11.11,0,0,1,0,.08Z" transform="translate(-128.26 -95.86)"/><path class="i" d="M379.26,206.19a17,17,0,1,1,17,17h0A17,17,0,0,1,379.26,206.19Z" transform="translate(-128.26 -95.86)"/><path class="n" d="M157.35,165H400.94a24.73,24.73,0,0,1,24.74,24.72V313.81a24.74,24.74,0,0,1-24.74,24.74H157.35a24.74,24.74,0,0,1-24.73-24.74V189.74A24.72,24.72,0,0,1,157.34,165Z" transform="translate(-128.26 -95.86)"/><path class="n" d="M424.09,180.87H134.46" transform="translate(-128.26 -95.86)"/><path class="i" d="M150.4,173.23a3.52,3.52,0,1,1,3.53,3.51h0A3.52,3.52,0,0,1,150.4,173.23Z" transform="translate(-128.26 -95.86)"/><path class="i" d="M164.26,173.23a3.52,3.52,0,1,1,3.53,3.51h0a3.51,3.51,0,0,1-3.52-3.5Z" transform="translate(-128.26 -95.86)"/><path class="i" d="M178.15,173.23a3.52,3.52,0,1,1,3.53,3.51h0A3.52,3.52,0,0,1,178.15,173.23Z" transform="translate(-128.26 -95.86)"/><path class="a" d="M614.46,464.18,522,748" transform="translate(-128.26 -95.86)"/><path class="a" d="M689.57,464.18,597.06,748" transform="translate(-128.26 -95.86)"/><path class="a" d="M689.57,464.18,782.07,748" transform="translate(-128.26 -95.86)"/><path class="a" d="M614.46,464.18,707,748" transform="translate(-128.26 -95.86)"/><path class="t" d="M454.26,279.4H597.65a11.19,11.19,0,0,1,11.19,11.19h0V409a11.19,11.19,0,0,1-11.19,11.19H454.26A11.19,11.19,0,0,1,443.09,409V290.59A11.19,11.19,0,0,1,454.26,279.4Z" transform="translate(-128.26 -95.86)"/><path class="s" d="M454.26,279.39a11.17,11.17,0,0,0-11.19,11.17h0V409a11.19,11.19,0,0,0,11.19,11.14h7.19c-.06-.68-.22-1.34-.22-2V279.39Z" transform="translate(-128.26 -95.86)"/><path class="s" d="M506.08,385.28h48.41l27.11,61.66H531.48Z" transform="translate(-128.26 -95.86)"/><path class="s" d="M667.8,403.49h39.88v43.45H667.8Z" transform="translate(-128.26 -95.86)"/><path class="z" d="M697.05,425.21a10.29,10.29,0,1,1,10.29,10.29h0A10.29,10.29,0,0,1,697.05,425.21Z" transform="translate(-128.26 -95.86)"/><path class="a" d="M667.8,410.89h39.54" transform="translate(-128.26 -95.86)"/><path class="aa" d="M157.48,165H401.07a24.74,24.74,0,0,1,24.74,24.74V313.81a24.74,24.74,0,0,1-24.74,24.74H157.48a24.74,24.74,0,0,1-24.73-24.74V189.74A24.72,24.72,0,0,1,157.47,165Z" transform="translate(-128.26 -95.86)"/></svg>