<svg width="324" height="356" viewBox="0 0 324 356" fill="none" xmlns="http://www.w3.org/2000/svg">
<g clip-path="url(#clip0)">
<path d="M278.663 75.3751C304.662 90.0681 316.483 124.176 319.587 157.103C322.692 190.029 317.156 221.778 303.741 256.327C290.326 290.875 269.106 328.305 235.719 341.085C202.258 353.929 156.644 342.118 122.346 322.624C88.1469 303.135 65.1692 275.894 43.7019 246.36C22.2347 216.825 2.19358 184.937 0.183032 149.054C-1.9117 113.176 14.0192 73.2474 45.6333 59.4263C77.3266 45.6226 124.708 58.0224 168.564 61.7894C212.419 65.5564 252.67 60.682 278.663 75.3751Z" fill="#F0F0F0"/>
<path d="M198.083 356C212.018 325.11 239.185 309.27 240.671 271.342C240.721 268.535 188.179 238.699 163.666 239.201C139.153 239.702 107.069 356 107.069 356H198.083Z" fill="white"/>
<path d="M248.327 22.502H91.103V269.163H248.327V22.502Z" fill="#EAEFFF"/>
<path d="M232.664 130.498H106.777V173.413H232.664V130.498Z" fill="white"/>
<path d="M158.031 142.867H215.569" stroke="#B0C3FA" stroke-width="4.78" stroke-linecap="round" stroke-linejoin="round"/>
<path d="M158.031 156.148H181.405" stroke="#B0C3FA" stroke-width="4.78" stroke-linecap="round" stroke-linejoin="round"/>
<path d="M131.849 163.66C139.192 163.66 145.145 158.419 145.145 151.954C145.145 145.488 139.192 140.247 131.849 140.247C124.506 140.247 118.553 145.488 118.553 151.954C118.553 158.419 124.506 163.66 131.849 163.66Z" fill="#ECC953"/>
<path d="M217.495 319.825C227.959 305.533 237.338 291.015 238.195 269.163" stroke="#1B3C87" stroke-width="4.78" stroke-linecap="round" stroke-linejoin="round"/>
<path d="M195.607 353.82C198.566 347.409 202.122 341.224 206.24 335.33" stroke="#1B3C87" stroke-width="4.78" stroke-linecap="round" stroke-linejoin="round"/>
<path d="M232.664 67.4924H106.777V110.408H232.664V67.4924Z" fill="white"/>
<path d="M248.327 22.502H91.103V47.9031H248.327V22.502Z" fill="#D6DFFF"/>
<path d="M248.327 243.757H91.103V269.158H248.327V243.757Z" fill="#D6DFFF"/>
<path d="M158.031 35.2024H181.405" stroke="#1B3C87" stroke-width="4.78" stroke-linecap="round" stroke-linejoin="round"/>
<path d="M169.718 262.557C173.544 262.557 176.646 259.826 176.646 256.458C176.646 253.089 173.544 250.358 169.718 250.358C165.891 250.358 162.79 253.089 162.79 256.458C162.79 259.826 165.891 262.557 169.718 262.557Z" fill="#B0C3FA"/>
<path d="M68.0762 356C75.5043 331.148 76.9899 236.101 68.0762 214.301C80.9516 206.017 133.939 170.701 141.862 165.033C149.29 169.393 145.824 205.581 121.559 221.277V232.177C134.434 232.177 153.747 270.109 142.853 310.22C136.559 327.791 156.05 356 156.05 356H68.0762Z" fill="white"/>
<path d="M131.334 239.149C140.783 252.791 148.023 279.879 140.376 308.036" stroke="#1B3C87" stroke-width="4.78" stroke-linecap="round" stroke-linejoin="round"/>
<path d="M131.849 168.042C135.385 165.64 138.039 163.817 139.386 162.854C146.814 167.213 143.348 203.401 119.083 219.097V227.028" stroke="#1B3C87" stroke-width="4.78" stroke-linecap="round" stroke-linejoin="round"/>
<path d="M73.043 207.264C84.2099 199.931 102.424 187.819 117.117 177.983" stroke="#1B3C87" stroke-width="4.78" stroke-linecap="round" stroke-linejoin="round"/>
<path d="M65.6001 353.82C71.4534 334.239 73.6125 271.094 69.9084 234.518" stroke="#1B3C87" stroke-width="4.78" stroke-linecap="round" stroke-linejoin="round"/>
<path d="M204.669 79.8616H215.569" stroke="#B0C3FA" stroke-width="4.78" stroke-linecap="round" stroke-linejoin="round"/>
<path d="M158.031 79.8616H193.77" stroke="#B0C3FA" stroke-width="4.78" stroke-linecap="round" stroke-linejoin="round"/>
<path d="M158.031 93.1421H181.405" stroke="#B0C3FA" stroke-width="4.78" stroke-linecap="round" stroke-linejoin="round"/>
<path d="M131.849 100.654C139.192 100.654 145.145 95.413 145.145 88.9477C145.145 82.4824 139.192 77.2412 131.849 77.2412C124.506 77.2412 118.553 82.4824 118.553 88.9477C118.553 95.413 124.506 100.654 131.849 100.654Z" fill="#FB5D64"/>
<path d="M264.798 205.437C301.359 226.949 242.167 267.785 226.36 279.064C222.269 276.483 219.432 241.451 264.798 205.437Z" fill="white"/>
<path d="M236.793 267.467C231.549 271.465 226.914 274.717 223.883 276.884C218.193 274.168 220.154 254.365 236.263 232.295" stroke="#1B3C87" stroke-width="4.78" stroke-linecap="round" stroke-linejoin="round"/>
<path d="M262.321 203.257C282.333 215.029 273.657 232.591 259.112 247.93" stroke="#1B3C87" stroke-width="4.78" stroke-linecap="round" stroke-linejoin="round"/>
<path d="M280.605 53.6494C284.226 53.6494 287.161 51.065 287.161 47.8768C287.161 44.6887 284.226 42.1042 280.605 42.1042C276.984 42.1042 274.048 44.6887 274.048 47.8768C274.048 51.065 276.984 53.6494 280.605 53.6494Z" stroke="#B0C3FA" stroke-width="4.78" stroke-linecap="round" stroke-linejoin="round"/>
<path d="M259.761 14.5667C259.761 14.388 259.761 14.2048 259.761 14.0217C259.761 11.1256 260.862 8.31277 262.887 6.03072C264.912 3.74866 267.746 2.12852 270.938 1.42808C274.13 0.727633 277.496 0.987126 280.501 2.16527C283.506 3.34341 285.977 5.37252 287.521 7.92973C289.065 10.4869 289.593 13.4253 289.022 16.2774C288.45 19.1294 286.812 21.7313 284.367 23.6689C281.922 25.6066 278.812 26.7687 275.53 26.9705C272.249 27.1722 268.985 26.4019 266.258 24.7821" stroke="#B0C3FA" stroke-width="4.78" stroke-linecap="round" stroke-linejoin="round"/>
<path d="M309.411 31.9936C307.297 31.4342 305.44 30.2971 304.109 28.747C302.778 27.1969 302.042 25.314 302.007 23.371C301.972 21.4279 302.64 19.5254 303.914 17.9388C305.188 16.3521 307.003 15.1636 309.096 14.5452C311.188 13.9269 313.45 13.9107 315.553 14.4991C317.657 15.0875 319.493 16.2499 320.797 17.8181C322.1 19.3863 322.803 21.2791 322.804 23.2224C322.805 25.1657 322.103 27.0588 320.801 28.6277" stroke="#B0C3FA" stroke-width="4.78" stroke-linecap="round" stroke-linejoin="round"/>
<path d="M251.799 185.961C213.172 206.453 208.716 250.925 213.668 253.541C227.533 248.745 279.035 198.605 279.035 175.497C279.035 170.265 261.812 160.368 257.855 158.951C255.637 158.188 257.999 154.975 250.1 161.406C250.15 167.793 249.585 179.718 251.799 185.961Z" fill="white"/>
<path d="M255.379 156.771C259.341 158.188 276.559 168.086 276.559 173.318C276.559 178.986 273.444 186.319 268.542 194.193" stroke="#1B3C87" stroke-width="4.78" stroke-linecap="round" stroke-linejoin="round"/>
<path d="M249.179 219.088C234.546 235.164 218.139 248.959 211.192 251.352C206.239 248.736 210.696 204.265 249.323 183.773" stroke="#1B3C87" stroke-width="4.78" stroke-linecap="round" stroke-linejoin="round"/>
<path d="M250.808 130.59C258.731 125.358 286.463 101.814 289.434 98.3261C295.872 96.5821 307.262 124.05 250.808 164.162" fill="white"/>
<path d="M270.79 143.504C263.87 150.176 256.361 156.355 248.332 161.981" stroke="#1B3C87" stroke-width="4.78" stroke-linecap="round" stroke-linejoin="round"/>
<path d="M248.332 128.41C256.255 123.178 283.987 99.634 286.958 96.146C291.514 94.9122 298.556 108.323 282.239 130.498" stroke="#1B3C87" stroke-width="4.78" stroke-linecap="round" stroke-linejoin="round"/>
</g>
<defs>
<clipPath id="clip0">
<rect width="324" height="356" fill="white"/>
</clipPath>
</defs>
</svg>
