<svg xmlns="http://www.w3.org/2000/svg" fill="none" viewBox="0 0 166 50"><defs/><circle cx="25" cy="25" r="25" fill="#F2E7FE"/><path fill="#000" fill-opacity=".9" d="M32.7 30c0-.6.1-1.2.5-1.7.4-.4 1-.8 1.6-1 .6-.3 1.4-.5 2.3-.5a9.4 9.4 0 013 .5v-.9c0-.9-.3-1.6-.8-2a3 3 0 00-2.1-.9c-.6 0-1.1.1-1.7.4l-1.7.9-.5-1c.7-.5 1.3-.8 2-1 .7-.3 1.3-.4 2-.4 1.3 0 2.3.4 3 1.1a4 4 0 011.2 3v4.9c0 .3.1.5.5.5V33a3 3 0 01-.7 0c-.3 0-.5 0-.7-.3a1 1 0 01-.3-.6v-.8c-.5.6-1 1-1.8 1.4-.8.3-1.5.5-2.3.5a3.4 3.4 0 01-3-1.6c-.4-.5-.5-1-.5-1.6zm7 .8c.2-.4.4-.7.4-1v-1.5c-1-.4-1.9-.6-2.9-.6s-1.7.2-2.3.6c-.6.4-1 1-1 1.6 0 .6.3 1 .7 1.6.5.4 1.1.7 1.9.7.7 0 1.3-.2 1.8-.4.6-.3 1-.6 1.3-1zM44.6 18.4H46v12.2c0 .6 0 .9.2 1 .2.2.4.3.7.3h.7l.7-.2.2 1c-.2.2-.6.3-1 .3l-.9.1a2 2 0 01-1.5-.5 2 2 0 01-.5-1.5V18.4zM54.6 33.2a5 5 0 01-2.6-.7 5.6 5.6 0 01-2.5-4.7c0-1 .1-2 .6-2.7a5.2 5.2 0 017.2-2 5.4 5.4 0 012.4 5.1h-8.9c.1.8.3 1.5.7 2 .3.7.8 1.1 1.4 1.5.5.3 1.1.5 1.8.5s1.3-.2 2-.6a3 3 0 001.2-1.3l1.2.3c-.2.5-.6 1-1 1.4a5 5 0 01-3.5 1.2zm-3.8-5.9h7.7a4.2 4.2 0 00-2-3.3c-.6-.4-1.2-.5-1.9-.5-.6 0-1.3.1-1.8.5-.6.3-1 .7-1.4 1.3-.3.6-.5 1.3-.6 2zm4.2-6.7l-.9-.3 1.2-1.9h1.5L55 20.6zM77.5 33h-1.3v-5.8c0-1.2-.2-2.1-.6-2.7a2 2 0 00-1.7-.9 3 3 0 00-2.1.9c-.7.5-1 1.3-1.3 2.1V33H69v-5.8c0-1.2-.2-2.1-.6-2.7-.4-.6-1-.9-1.7-.9-.8 0-1.5.3-2.1.9-.6.5-1 1.2-1.3 2.1V33H62V22.6h1.3v2.3c.4-.8 1-1.4 1.7-1.8.6-.5 1.4-.7 2.3-.7a3 3 0 012 .8c.6.5 1 1 1 1.9 1-1.8 2.3-2.7 4-2.7 1.2 0 2 .4 2.5 1.2.5.9.7 2 .7 3.3V33zM85.1 27.8c0-1 .2-1.9.6-2.7.4-.8 1-1.5 1.7-2s1.6-.7 2.5-.7a4 4 0 012.3.7 5 5 0 011.6 1.7v-6.4h1.4v13c0 .3.1.5.5.5V33H95c-.3 0-.5 0-.7-.3a1 1 0 01-.3-.7v-1c-.4.7-1 1.2-1.7 1.6a4.6 4.6 0 01-4.2.2 5 5 0 01-2.6-3c-.3-.6-.4-1.3-.4-2zm8.7 1.6v-3.2c-.2-.5-.4-1-.8-1.3l-1.3-1-1.5-.3c-.7 0-1.4.2-2 .6-.5.4-1 1-1.2 1.6a4.6 4.6 0 000 4.1c.4.6.8 1.2 1.4 1.5a3.4 3.4 0 003.4.2c.5-.2 1-.5 1.3-.9.4-.4.6-.8.7-1.3zM102.8 33.2a5 5 0 01-4.5-2.7c-.4-.8-.6-1.7-.6-2.7a5.5 5.5 0 012.5-4.6c.8-.5 1.7-.8 2.6-.8 1 0 2 .3 2.7.8.8.5 1.4 1.1 1.8 2 .5.8.7 1.6.7 2.6s-.2 1.9-.6 2.7c-.5.8-1 1.5-1.9 2-.7.5-1.6.7-2.7.7zm-3.7-5.4a4.2 4.2 0 001.9 3.6 3.5 3.5 0 003.7 0c.6-.3 1-.8 1.4-1.5.4-.6.5-1.3.5-2.1a4.4 4.4 0 00-1.9-3.6 3.4 3.4 0 00-3.7 0c-.6.4-1 .9-1.4 1.5-.4.6-.5 1.4-.5 2.1zM120.3 33.2c-1.1 0-2.1-.3-3-.8a5.5 5.5 0 01-2.6-4.7c0-1 .3-1.8.7-2.6.5-.9 1.1-1.5 2-2 .8-.5 1.7-.8 2.9-.8 1.1 0 2.1.3 2.9.8.8.5 1.4 1.1 1.8 2l-2.6.7a2.3 2.3 0 00-2.1-1.2c-.6 0-1 .2-1.4.4-.5.3-.8.6-1 1.1-.3.5-.4 1-.4 1.7 0 .6.1 1.1.4 1.6.2.5.6.8 1 1.1.4.3.8.4 1.4.4.4 0 .9 0 1.3-.3s.7-.6.8-1l2.7.9c-.4.8-1 1.4-1.8 2-.9.4-1.9.7-3 .7zM131.6 33.2c-1.1 0-2.1-.2-3-.7a5.2 5.2 0 01-1.8-2 5.7 5.7 0 010-5.4 5.2 5.2 0 014.8-2.8c1.1 0 2.1.3 3 .8a5 5 0 011.8 2c.5.8.7 1.7.7 2.7 0 1-.2 1.8-.7 2.7a5.2 5.2 0 01-4.8 2.7zm-2.7-5.4c0 .6 0 1.1.3 1.6s.6.9 1 1.1c.4.3.9.4 1.4.4.5 0 1-.1 1.4-.4a3 3 0 001-1.1c.2-.5.3-1 .3-1.6A3.3 3.3 0 00133 25c-.4-.2-.9-.4-1.4-.4-.5 0-1 .2-1.4.4-.4.3-.7.7-1 1.2-.2.4-.3 1-.3 1.6zM141.5 33l-3.9-10.5h2.8l2.7 8 2.6-8h2.6L144.4 33h-2.9zM149.8 21v-2.6h2.7v2.7h-2.7zm0 12V22.5h2.7V33h-2.7zM154.4 27.8c0-1 .2-2 .6-2.8.4-.8 1-1.5 1.7-2a4.2 4.2 0 016 1.4v-6h2.6V30c0 .3 0 .5.2.6 0 .1.2.2.5.2V33l-1.2.1a2 2 0 01-1.2-.3c-.3-.3-.5-.6-.5-1v-.6c-.4.6-1 1.1-1.6 1.5-.7.3-1.4.5-2 .5-1 0-2-.2-2.7-.7a5.2 5.2 0 01-1.7-2 6 6 0 01-.7-2.7zm8.3 1.4v-2.5c-.3-.6-.6-1.1-1.1-1.5-.6-.4-1-.6-1.6-.6-.6 0-1 .2-1.5.5-.4.3-.7.7-1 1.2a3.6 3.6 0 00.1 3.1c.3.5.6.8 1 1.1.5.3 1 .4 1.5.4s1-.1 1.5-.5c.5-.3.9-.7 1-1.2z"/></svg>